<?xml version="1.0" encoding="UTF-8"?>
<svg viewBox="0 0 101 37" version="1.1" xmlns="http://www.w3.org/2000/svg" xmlns:xlink="http://www.w3.org/1999/xlink">
    <g id="Desktop" stroke="none" stroke-width="1" fill="none" fill-rule="evenodd">
        <g id="1" transform="translate(-197.000000, -44.000000)">
            <g id="Group-2" transform="translate(197.000000, 44.000000)">
                <path d="M95.060917,10 C93.2920894,10 91.7960965,10.8110154 90.7345372,12.3450407 C89.6793279,13.8699031 89.1216151,15.9984457 89.1216151,18.5001065 C89.1216151,21.0017674 89.6793279,23.13031 90.7345372,24.6549593 C91.7960965,26.1891977 93.2920894,27 95.060917,27 C96.8297447,27 98.3257376,26.1891977 99.3872969,24.6549593 C100.442287,23.13031 101,21.0017674 101,18.5001065 C101,15.9984457 100.442287,13.8699031 99.3872969,12.3450407 C98.3257376,10.8110154 96.8297447,10 95.060917,10 L95.060917,10 L95.060917,10 Z M95.060917,24.8938317 C94.2152606,24.8938317 93.5471877,24.428233 93.0179408,23.4701864 C92.3787717,22.3129019 92.0266704,20.5478885 92.0266704,18.5001065 C92.0266704,16.4523245 92.3787717,14.6870981 93.0179408,13.5300267 C93.5471877,12.5719801 94.2152606,12.1061683 95.060917,12.1061683 C95.9063545,12.1061683 96.5746464,12.5719801 97.1038933,13.5300267 C97.7430623,14.6870981 98.0949447,16.4521115 98.0949447,18.5001065 C98.0949447,20.5481016 97.7430623,22.3133281 97.1038933,23.4701864 C96.5746464,24.428233 95.9063545,24.8938317 95.060917,24.8938317 L95.060917,24.8938317 L95.060917,24.8938317 Z M56.7267565,16.1927826 L56.7267565,23.5042806 C56.7267565,25.4318806 58.3383647,27 60.3191539,27 C62.0468155,27 63.3520868,26.165971 63.8327227,25.8071297 C63.8594368,25.7870994 63.8944718,25.7811329 63.9266601,25.791148 C63.9588485,25.8011632 63.9838109,25.8258815 63.9936645,25.8574186 L64.2835788,26.7807318 L66.424215,26.7807318 L66.424215,16.1927826 L63.6735325,16.1927826 L63.6735325,24.1098785 C63.6735325,24.1471691 63.6518547,24.1814763 63.6179145,24.1987365 C63.1007109,24.4582785 62.0803177,24.8940448 61.0581726,24.8940448 C60.1868969,24.8940448 59.4774389,24.2040637 59.4774389,23.3557578 L59.4774389,16.1927826 L56.7267565,16.1927826 L56.7267565,16.1927826 L56.7267565,16.1927826 Z M84.2701488,26.7805187 L87.0210502,26.7805187 L87.0210502,19.4690207 C87.0210502,17.5414207 85.4094419,15.9730882 83.4286528,15.9730882 C81.9705414,15.9730882 80.8008116,16.583161 80.2334642,16.9466902 C80.2017138,16.9669337 80.1614236,16.9686384 80.1283593,16.9511651 C80.0952951,16.9336918 80.0742741,16.9000238 80.0742741,16.8631595 L80.0742741,10.2196944 L77.3235917,10.2196944 L77.3235917,26.7805187 L80.0742741,26.7805187 L80.0742741,18.8632096 C80.0742741,18.8259191 80.095952,18.7916118 80.1301111,18.7745647 C80.6470957,18.5148097 81.667708,18.0792564 82.689634,18.0792564 C83.1118053,18.0792564 83.5087952,18.239286 83.8072493,18.5297259 C84.1057034,18.8201657 84.2699298,19.2067085 84.2699298,19.6173304 L84.2699298,26.7805187 L84.2701488,26.7805187 L84.2701488,26.7805187 Z M68.4069749,18.2987378 L70.0812081,18.2987378 C70.137921,18.2987378 70.1839044,18.3434864 70.1839044,18.3986763 L70.1839044,24.2232417 C70.1839044,25.7542837 71.4639943,26.9997869 73.037283,26.9997869 C73.607696,26.9997869 74.1704451,26.9196656 74.7117353,26.7615538 L74.7117353,24.8492962 C74.3959827,24.8763584 74.0329329,24.8938317 73.7763018,24.8938317 C73.3120885,24.8938317 72.9345868,24.5262538 72.9345868,24.0747189 L72.9345868,18.3984633 C72.9345868,18.3432733 72.9805702,18.2985247 73.037283,18.2985247 L74.7117353,18.2985247 L74.7117353,16.1925695 L73.037283,16.1925695 C72.9805702,16.1925695 72.9345868,16.1478209 72.9345868,16.0926309 L72.9345868,12.5964853 L70.1839044,12.5964853 L70.1839044,16.0926309 C70.1839044,16.1478209 70.137921,16.1925695 70.0812081,16.1925695 L68.4069749,16.1925695 L68.4069749,18.2987378 L68.4069749,18.2987378 L68.4069749,18.2987378 Z M52.327898,26.7805187 L55.1893786,26.7805187 L50.8375984,12.0115569 C50.4887815,10.8272102 49.3608747,10 48.0947988,10 C46.8287228,10 45.700816,10.8272102 45.3517802,12.0115569 L41,26.7805187 L43.8616995,26.7805187 L45.1212064,22.5057471 C45.1339065,22.4629163 45.1741968,22.4335101 45.2199612,22.4335101 L50.9696364,22.4335101 C51.0154008,22.4335101 51.05591,22.4629163 51.0683912,22.5057471 L52.327898,26.7805187 L52.327898,26.7805187 L52.327898,26.7805187 Z M50.290396,20.3275549 L45.8996394,20.3275549 C45.8674511,20.3275549 45.8370144,20.3128518 45.8175262,20.2874942 C45.798257,20.2627759 45.7921259,20.2301734 45.8008846,20.2001279 L47.9962629,12.7492699 C48.0089631,12.706439 48.0492533,12.6770328 48.0950177,12.6770328 C48.1407822,12.6770328 48.1810724,12.706439 48.1935536,12.7492699 L50.3891508,20.2001279 C50.3979096,20.2303864 50.3917785,20.2627759 50.3722903,20.2874942 C50.353021,20.3128518 50.3225844,20.3275549 50.290396,20.3275549 L50.290396,20.3275549 L50.290396,20.3275549 Z" id="Shape" fill="#000000"></path>
                <path d="M26.1989483,29.9321533 L22.4953085,18.4994489 L32.1902727,11.4355701 L20.2063052,11.4355701 L16.5024456,0.00330654338 L16.5013466,0.000220436225 L28.4870724,0.000220436225 L32.1918113,11.4344679 L32.1920311,11.4342474 L32.1951083,11.432484 C34.3465164,18.0658509 32.1307067,25.6105011 26.1989483,29.9321533 L26.1989483,29.9321533 L26.1989483,29.9321533 Z M6.80506362,29.9321533 L6.80198642,29.9343577 L16.4993684,37 L26.1989483,29.9323737 L16.5024456,22.866511 L6.80506362,29.9321533 L6.80506362,29.9321533 L6.80506362,29.9321533 Z M0.811321502,11.4327044 L0.811321502,11.4327044 C-1.45350371,18.4251619 1.17553107,25.8344643 6.80308542,29.9334759 L6.80396462,29.9299489 L10.5080441,18.4979059 L0.815277913,11.4353496 L12.7963879,11.4353496 L16.5004674,0.00308610716 L16.5013466,0 L4.51496134,0 L0.811321502,11.4327044 L0.811321502,11.4327044 L0.811321502,11.4327044 Z" id="Shape" fill="#000000"></path>
            </g>
        </g>
    </g>
</svg>
