<?xml version="1.0" encoding="UTF-8"?>
<svg width="52px" height="52px" viewBox="0 0 52 52" version="1.1" xmlns="http://www.w3.org/2000/svg" xmlns:xlink="http://www.w3.org/1999/xlink">
    <!-- Generator: Sketch 53.2 (72643) - https://sketchapp.com -->
    <title>security</title>
    <desc>Created with Sketch.</desc>
    <g id="Desktop" stroke="none" stroke-width="1" fill="none" fill-rule="evenodd">
        <g id="1" transform="translate(-290.000000, -684.000000)">
            <g id="Group-19" transform="translate(290.000000, 684.000000)">
                <g id="Icons/Section/Security-l">
                    <g id="Group-2">
                        <path d="M25.6075472,51.1169811 C11.5773585,51.1169811 0.0981132075,39.6377358 0.0981132075,25.6075472 C0.0981132075,11.5773585 11.5773585,0.0981132075 25.6075472,0.0981132075 C39.6377358,0.0981132075 51.1169811,11.5773585 51.1169811,25.6075472 C51.1169811,39.6377358 39.7358491,51.1169811 25.6075472,51.1169811 L25.6075472,51.1169811 Z M25.6075472,2.06037736 C12.6566038,2.06037736 2.06037736,12.6566038 2.06037736,25.6075472 C2.06037736,38.5584906 12.6566038,49.154717 25.6075472,49.154717 C38.5584906,49.154717 49.154717,38.5584906 49.154717,25.6075472 C49.154717,12.6566038 38.5584906,2.06037736 25.6075472,2.06037736 L25.6075472,2.06037736 Z" id="Shape" fill="#000000"></path>
                        <path d="M25.6075472,43.3660377 L25.2150943,43.1698113 C24.7245283,42.9735849 12.8528302,37.5773585 12.8528302,30.5132075 L12.8528302,13.8339623 L38.3622642,13.8339623 L38.3622642,30.5132075 C38.3622642,37.5773585 26.490566,42.9735849 26,43.1698113 L25.6075472,43.3660377 L25.6075472,43.3660377 Z M14.8150943,15.7962264 L14.8150943,30.5132075 C14.8150943,35.1245283 22.2716981,39.6377358 25.6075472,41.2075472 C28.9433962,39.6377358 36.4,35.1245283 36.4,30.5132075 L36.4,15.7962264 L14.8150943,15.7962264 L14.8150943,15.7962264 Z" id="Shape" fill="#000000"></path>
                        <polygon id="Shape" fill="#EB5424" points="25.6075472 19.1320755 27.2754717 24.2339623 32.7698113 24.2339623 28.354717 27.4716981 30.0226415 32.6716981 25.6075472 29.4339623 21.1924528 32.6716981 22.8603774 27.4716981 18.5433962 24.2339623 23.9396226 24.2339623"></polygon>
                    </g>
                </g>
            </g>
        </g>
    </g>
</svg>