<?xml version="1.0" encoding="UTF-8"?>
<svg width="54px" height="54px" viewBox="0 0 54 54" version="1.1" xmlns="http://www.w3.org/2000/svg" xmlns:xlink="http://www.w3.org/1999/xlink">
    <!-- Generator: Sketch 53.2 (72643) - https://sketchapp.com -->
    <title>Token</title>
    <desc>Created with Sketch.</desc>
    <g id="Desktop" stroke="none" stroke-width="1" fill="none" fill-rule="evenodd">
        <g id="1" transform="translate(-864.000000, -683.000000)">
            <g id="Group-22" transform="translate(865.000000, 684.000000)">
                <g id="Icons/Section/Token">
                    <g id="Group-2">
                        <circle id="Oval" stroke="#222228" stroke-width="2" cx="26" cy="26" r="26"></circle>
                        <g id="Untitled-1" transform="translate(8.320000, 12.480000)">
                            <g id="Group">
                                <path d="M32.552,5.824 C31.096,5.096 29.848,3.848 29.12,2.392 L11.648,2.392 L11.648,5.096 C11.648,5.72 11.232,6.136 10.608,6.136 C9.984,6.136 9.568,5.72 9.568,5.096 L9.568,2.392 L5.928,2.392 C5.2,3.744 3.952,5.096 2.6,5.72 L2.6,20.592 C3.952,21.32 5.304,22.568 6.032,24.024 L9.776,24.024 L9.776,23.816 L9.776,20.696 C9.776,20.072 10.192,19.656 10.816,19.656 C11.44,19.656 11.856,20.072 11.856,20.696 L11.856,23.816 L11.856,24.024 L29.12,24.024 C29.848,22.568 31.096,21.32 32.552,20.592 L32.552,5.824 Z M11.648,17.576 C11.648,18.2 11.232,18.616 10.608,18.616 C9.984,18.616 9.568,18.2 9.568,17.576 L9.568,14.456 C9.568,13.832 9.984,13.416 10.608,13.416 C11.232,13.416 11.648,13.832 11.648,14.456 L11.648,17.576 Z M11.648,11.336 C11.648,11.96 11.232,12.376 10.608,12.376 C9.984,12.376 9.568,11.96 9.568,11.336 L9.568,8.216 C9.568,7.592 9.984,7.176 10.608,7.176 C11.232,7.176 11.648,7.592 11.648,8.216 L11.648,11.336 Z" id="Shape"></path>
                                <path d="M10.608,6.136 C11.232,6.136 11.648,5.72 11.648,5.096 L11.648,2.392 L9.568,2.392 L9.568,5.096 C9.568,5.616 10.088,6.136 10.608,6.136 Z" id="Shape" fill="#EB5424"></path>
                                <path d="M10.608,13.416 C9.984,13.416 9.568,13.832 9.568,14.456 L9.568,17.576 C9.568,18.2 9.984,18.616 10.608,18.616 C11.232,18.616 11.648,18.2 11.648,17.576 L11.648,14.456 C11.648,13.832 11.232,13.416 10.608,13.416 Z" id="Shape" fill="#EB5424"></path>
                                <path d="M11.648,20.696 C11.648,20.072 11.232,19.656 10.608,19.656 C9.984,19.656 9.568,20.072 9.568,20.696 L9.568,23.816 L9.568,24.024 L11.544,24.024 L11.544,23.816 L11.544,20.696 L11.648,20.696 Z" id="Shape" fill="#EB5424"></path>
                                <path d="M10.608,7.176 C9.984,7.176 9.568,7.592 9.568,8.216 L9.568,11.336 C9.568,11.96 9.984,12.376 10.608,12.376 C11.232,12.376 11.648,11.96 11.648,11.336 L11.648,8.216 C11.648,7.592 11.232,7.176 10.608,7.176 Z" id="Shape" fill="#EB5424"></path>
                                <path d="M34.632,4.888 L34.632,4.888 L34.632,4.16 C32.968,4.16 30.68,1.872 30.68,0.208 L28.6,0.208 L28.6,0.208 L6.552,0.208 L6.552,0.208 L4.472,0.208 C4.472,1.872 2.184,4.16 0.52,4.16 L0.52,6.24 L0.52,6.24 L0.52,19.968 L0.52,19.968 L0.52,22.048 C2.184,22.048 4.472,24.336 4.472,26 L5.2,26 L5.2,26 L29.64,26 L29.64,26 L30.68,26 C30.68,24.336 32.968,22.048 34.632,22.048 L34.632,21.32 L34.632,21.32 L34.632,4.888 Z M29.12,24.024 L11.648,24.024 L9.672,24.024 L5.928,24.024 C5.2,22.672 3.952,21.32 2.496,20.592 L2.496,5.72 C3.848,4.992 5.2,3.744 5.824,2.392 L9.464,2.392 L11.544,2.392 L29.12,2.392 C29.848,3.848 31.096,5.096 32.552,5.824 L32.552,20.592 C31.096,21.32 29.744,22.568 29.12,24.024 Z" id="Shape" fill="#000000"></path>
                            </g>
                        </g>
                    </g>
                </g>
            </g>
        </g>
    </g>
</svg>