<?xml version="1.0" encoding="UTF-8"?>
<svg width="36px" height="36px" viewBox="0 0 36 36" version="1.1" xmlns="http://www.w3.org/2000/svg" xmlns:xlink="http://www.w3.org/1999/xlink">
    <!-- Generator: Sketch 53.2 (72643) - https://sketchapp.com -->
    <title>Group 13</title>
    <desc>Created with Sketch.</desc>
    <g id="Desktop" stroke="none" stroke-width="1" fill="none" fill-rule="evenodd">
        <g id="1" transform="translate(-619.000000, -3824.000000)">
            <g id="Group-7" transform="translate(565.000000, 3594.000000)">
                <g id="Group-12" transform="translate(0.000000, 230.000000)">
                    <g id="Group-13" transform="translate(54.507383, 0.000000)">
                        <path d="M17.3297718,35.863 L17.3297718,35.863 C7.75908725,35.863 -3.55271368e-14,27.835 -3.55271368e-14,17.9315 C-3.55271368e-14,8.028 7.75908725,1.38555833e-13 17.3297718,1.38555833e-13 C26.9009396,1.38555833e-13 34.6600268,8.028 34.6600268,17.9315 C34.6600268,27.835 26.9009396,35.863 17.3297718,35.863" id="Fill-19" fill="#F56F68"></path>
                        <path d="M8.09637584,23.9345 C9.77315436,25.047 11.7645101,25.696 13.9037315,25.696 C20.9384698,25.696 24.912,19.5485 24.6728054,14.034 C25.4131007,13.482 26.055302,12.7915 26.5631678,12.005 C25.8837584,12.3165 25.1531275,12.5275 24.3877047,12.622 C25.1690738,12.1375 25.7702013,11.3695 26.0528859,10.453 C25.3208054,10.9025 24.5099597,11.229 23.6474094,11.405 C22.9559195,10.643 21.9715973,10.167 20.8814497,10.167 C18.436349,10.167 16.6392483,12.5285 17.1910872,14.9805 C14.0424161,14.8175 11.2503624,13.2565 9.38222819,10.884 C8.38969128,12.647 8.86759732,14.952 10.5550067,16.1185 C9.93358389,16.0985 9.34888591,15.9215 8.83812081,15.628 C8.7975302,17.4445 10.0548725,19.143 11.8771007,19.522 C11.3436242,19.672 10.7594094,19.706 10.1669799,19.5885 C10.6477852,21.1465 12.0471946,22.2795 13.7056107,22.311 C12.1129128,23.6035 10.1065772,24.18 8.09637584,23.9345" id="Fill-20" fill="#FFFFFE"></path>
                    </g>
                </g>
            </g>
        </g>
    </g>
</svg>