<?xml version="1.0" encoding="UTF-8"?>
<svg width="35px" height="36px" viewBox="0 0 35 36" version="1.1" xmlns="http://www.w3.org/2000/svg" xmlns:xlink="http://www.w3.org/1999/xlink">
    <!-- Generator: Sketch 53.2 (72643) - https://sketchapp.com -->
    <title>Group 15</title>
    <desc>Created with Sketch.</desc>
    <g id="Desktop" stroke="none" stroke-width="1" fill="none" fill-rule="evenodd">
        <g id="1" transform="translate(-565.000000, -3824.000000)">
            <g id="Group-7" transform="translate(565.000000, 3594.000000)">
                <g id="Group-12" transform="translate(0.000000, 230.000000)">
                    <g id="Group-15" transform="translate(0.000000, 0.000000)">
                        <path d="M17.3297718,35.863 L17.3297718,35.863 C7.75860403,35.863 2.48689958e-14,27.835 2.48689958e-14,17.9315 C2.48689958e-14,8.028 7.75860403,1.38555833e-13 17.3297718,1.38555833e-13 C26.9009396,1.38555833e-13 34.6595436,8.028 34.6595436,17.9315 C34.6595436,27.835 26.9009396,35.863 17.3297718,35.863" id="Fill-30" fill="#F56F68"></path>
                        <path d="M14.6894497,28.7705 L18.9079732,28.7705 L18.9079732,17.8395 L21.8507919,17.8395 L22.1648859,14.1795 L18.9079732,14.1795 C18.9079732,14.1795 18.9079732,12.813 18.9079732,12.095 C18.9079732,11.2325 19.0751678,10.891 19.8816644,10.891 C20.5306309,10.891 22.1648859,10.891 22.1648859,10.891 L22.1648859,7.093 C22.1648859,7.093 19.7579597,7.093 19.2438121,7.093 C16.1048054,7.093 14.6894497,8.5235 14.6894497,11.2615 C14.6894497,13.6465 14.6894497,14.1795 14.6894497,14.1795 L12.4946577,14.1795 L12.4946577,17.885 L14.6894497,17.885 L14.6894497,28.7705" id="Fill-31" fill="#FFFFFE"></path>
                    </g>
                </g>
            </g>
        </g>
    </g>
</svg>