<?xml version="1.0" encoding="UTF-8"?>
<svg width="36px" height="35px" viewBox="0 0 36 35" version="1.1" xmlns="http://www.w3.org/2000/svg" xmlns:xlink="http://www.w3.org/1999/xlink">
    <!-- Generator: Sketch 59.1 (86144) - https://sketch.com -->
    <title>Group 16</title>
    <desc>Created with Sketch.</desc>
    <g id="Desktop" stroke="none" stroke-width="1" fill="none" fill-rule="evenodd">
        <g id="1" transform="translate(-1062.000000, -3824.000000)">
            <g id="Group-16" transform="translate(1062.000000, 3824.000000)">
                <path d="M17.998895,0 C8.05966851,0 0,8.03323588 0,17.9445284 C0,25.8709188 5.15690608,32.5955733 12.3104972,34.9693047 C13.2110497,35.1334281 13.5392265,34.5793739 13.5392265,34.1035261 C13.5392265,33.6783473 13.5237569,32.5493103 13.5149171,31.0523725 C8.50828729,32.136248 7.4519337,28.6466976 7.4519337,28.6466976 C6.63314917,26.5736755 5.45303867,26.0229258 5.45303867,26.0229258 C3.81878453,24.9093098 5.57679558,24.9313398 5.57679558,24.9313398 C7.38342541,25.0591137 8.33370166,26.7807574 8.33370166,26.7807574 C9.93922652,29.5223897 12.5458564,28.7304115 13.5723757,28.2721877 C13.7359116,27.1123088 14.2,26.3214321 14.7149171,25.8731218 C10.718232,25.4204055 6.5160221,23.8805092 6.5160221,17.0049493 C6.5160221,15.0464832 7.21767956,13.4449029 8.36906077,12.190295 C8.18342541,11.7364772 7.56574586,9.91239403 8.54475138,7.44173064 C8.54475138,7.44173064 10.0563536,6.95927386 13.4950276,9.28123481 C14.9303867,8.88249199 16.4707182,8.68422208 18.001105,8.67651159 C19.5292818,8.68422208 21.0696133,8.88249199 22.5071823,9.28123481 C25.9436464,6.95927386 27.4519337,7.44173064 27.4519337,7.44173064 C28.4342541,9.91239403 27.8165746,11.7364772 27.6309392,12.190295 C28.7845304,13.4449029 29.481768,15.0464832 29.481768,17.0049493 C29.481768,23.8981332 25.2729282,25.414898 21.2629834,25.8588023 C21.9093923,26.4128566 22.4850829,27.5077471 22.4850829,29.1820263 C22.4850829,31.5799908 22.4629834,33.5153254 22.4629834,34.1035261 C22.4629834,34.5837799 22.7867403,35.1422401 23.7005525,34.9671017 C30.8464088,32.5889643 36,25.8687158 36,17.9445284 C36,8.03323588 27.9403315,0 17.998895,0" id="Fill-1-Copy-2" fill="#EB5424"></path>
                <path d="M17.9315,35.863 L17.9315,35.863 C8.028,35.863 -3.55271368e-14,27.835 -3.55271368e-14,17.9315 C-3.55271368e-14,8.028 8.028,1.38555833e-13 17.9315,1.38555833e-13 C27.835,1.38555833e-13 35.8635,8.028 35.8635,17.9315 C35.8635,27.835 27.835,35.863 17.9315,35.863" id="Fill-21-Copy-6"></path>
            </g>
        </g>
    </g>
</svg>