<?xml version="1.0" encoding="UTF-8"?>
<svg width="36px" height="36px" viewBox="0 0 36 36" version="1.1" xmlns="http://www.w3.org/2000/svg" xmlns:xlink="http://www.w3.org/1999/xlink">
    <!-- Generator: Sketch 59.1 (86144) - https://sketch.com -->
    <title>Group 18</title>
    <desc>Created with Sketch.</desc>
    <g id="Desktop" stroke="none" stroke-width="1" fill="none" fill-rule="evenodd">
        <g id="1" transform="translate(-1118.000000, -3824.000000)">
            <g id="Group-18" transform="translate(1118.000000, 3824.000000)">
                <path d="M17.9315,35.863 L17.9315,35.863 C8.028,35.863 -3.55271368e-14,27.835 -3.55271368e-14,17.9315 C-3.55271368e-14,8.028 8.028,1.38555833e-13 17.9315,1.38555833e-13 C27.835,1.38555833e-13 35.8635,8.028 35.8635,17.9315 C35.8635,27.835 27.835,35.863 17.9315,35.863" id="Fill-21-Copy-5" fill="#EB5424"></path>
                <path d="M24.4166667,7 L11.5833333,7 C9.05241667,7 7,9.05241667 7,11.5833333 L7,24.4166667 C7,26.9475833 9.05241667,29 11.5833333,29 L24.4166667,29 C26.9485,29 29,26.9475833 29,24.4166667 L29,11.5833333 C29,9.05241667 26.9485,7 24.4166667,7 Z M14,24 L11,24 L11,14 L14,14 L14,24 Z M12.5,13 C11.672,13 11,12.3282313 11,11.5 C11,10.6717687 11.672,10 12.5,10 C13.328,10 14,10.6717687 14,11.5 C14,12.3282313 13.3288571,13 12.5,13 Z M25,24 L22.3,24 L22.3,18.905594 C22.3,15.8438596 18.7,16.0756714 18.7,18.905594 L18.7,24 L16,24 L16,14.0002737 L18.7,14.0002737 L18.7,15.6047752 C19.9564,13.2539304 25,13.0802988 25,17.8556227 L25,24 Z" id="Shape-Copy-2" fill="#FFFFFF" fill-rule="nonzero"></path>
            </g>
        </g>
    </g>
</svg>